<svg width="20" height="20" viewBox="0 0 20 20" fill="none" xmlns="http://www.w3.org/2000/svg">
<path d="M18 0H2C1.46957 0 0.960859 0.210714 0.585786 0.585786C0.210714 0.960859 0 1.46957 0 2L0 20L4 16H18C18.5304 16 19.0391 15.7893 19.4142 15.4142C19.7893 15.0391 20 14.5304 20 14V2C20 1.46957 19.7893 0.960859 19.4142 0.585786C19.0391 0.210714 18.5304 0 18 0ZM14 4C14.2967 4 14.5867 4.08797 14.8334 4.2528C15.08 4.41762 15.2723 4.65189 15.3858 4.92597C15.4994 5.20006 15.5291 5.50166 15.4712 5.79264C15.4133 6.08361 15.2704 6.35088 15.0607 6.56066C14.8509 6.77044 14.5836 6.9133 14.2926 6.97118C14.0017 7.02906 13.7001 6.99935 13.426 6.88582C13.1519 6.77229 12.9176 6.58003 12.7528 6.33336C12.588 6.08668 12.5 5.79667 12.5 5.5C12.5 5.10218 12.658 4.72064 12.9393 4.43934C13.2206 4.15804 13.6022 4 14 4ZM6 4C6.29667 4 6.58668 4.08797 6.83336 4.2528C7.08003 4.41762 7.27229 4.65189 7.38582 4.92597C7.49935 5.20006 7.52906 5.50166 7.47118 5.79264C7.4133 6.08361 7.27044 6.35088 7.06066 6.56066C6.85088 6.77044 6.58361 6.9133 6.29264 6.97118C6.00166 7.02906 5.70006 6.99935 5.42597 6.88582C5.15189 6.77229 4.91762 6.58003 4.7528 6.33336C4.58797 6.08668 4.5 5.79667 4.5 5.5C4.5 5.10218 4.65804 4.72064 4.93934 4.43934C5.22064 4.15804 5.60218 4 6 4ZM10 12C7.39 12 5.17 11.33 4.35 9H15.65C14.83 11.33 12.61 12 10 12Z" fill="#5E4CAB"/>
</svg>
