<svg width="58" height="58" viewBox="0 0 58 58" fill="none" xmlns="http://www.w3.org/2000/svg">
<g filter="url(#filter0_d_2_653)">
<path d="M53 28C53 41.2548 42.2548 52 29 52C15.7452 52 5 41.2548 5 28C5 14.7452 15.7452 4 29 4C42.2548 4 53 14.7452 53 28Z" fill="#A8A8A8"/>
<path d="M33.5 36.75H24.5C23.75 36.75 23.2 36.72 22.73 36.65C19.41 36.29 18.75 34.3 18.75 31V25C18.75 21.7 19.41 19.71 22.76 19.34C23.2 19.28 23.75 19.25 24.5 19.25H33.5C34.25 19.25 34.8 19.28 35.27 19.35C38.59 19.71 39.25 21.7 39.25 25V31C39.25 34.3 38.59 36.29 35.24 36.66C34.8 36.72 34.25 36.75 33.5 36.75ZM24.5 20.75C23.82 20.75 23.34 20.78 22.95 20.83C20.92 21.06 20.25 21.69 20.25 25V31C20.25 34.31 20.92 34.94 22.92 35.17C23.34 35.23 23.82 35.25 24.5 35.25H33.5C34.18 35.25 34.66 35.22 35.05 35.17C37.08 34.95 37.75 34.31 37.75 31V25C37.75 21.69 37.08 21.06 35.08 20.83C34.66 20.77 34.18 20.75 33.5 20.75H24.5Z" fill="white"/>
<path d="M34 26.75H30.5C30.09 26.75 29.75 26.41 29.75 26C29.75 25.59 30.09 25.25 30.5 25.25H34C34.41 25.25 34.75 25.59 34.75 26C34.75 26.41 34.41 26.75 34 26.75Z" fill="white"/>
<path d="M27.0996 27C26.5496 27 26.0996 26.55 26.0996 26C26.0996 25.45 26.5396 25 27.0996 25H27.1096C27.6596 25 28.1096 25.45 28.1096 26C28.1096 26.55 27.6596 27 27.0996 27Z" fill="white"/>
<path d="M24.0996 27C23.5496 27 23.0996 26.55 23.0996 26C23.0996 25.45 23.5396 25 24.0996 25C24.6496 25 25.0996 25.45 25.0996 26C25.0996 26.55 24.6596 27 24.0996 27Z" fill="white"/>
<path d="M33.9998 32.25H24.0198C23.6098 32.25 23.2598 31.91 23.2598 31.5C23.2598 31.09 23.5898 30.75 23.9998 30.75H33.9998C34.4098 30.75 34.7498 31.09 34.7498 31.5C34.7498 31.91 34.4098 32.25 33.9998 32.25Z" fill="white"/>
</g>
<defs>
<filter id="filter0_d_2_653" x="0" y="0" width="58" height="58" filterUnits="userSpaceOnUse" color-interpolation-filters="sRGB">
<feFlood flood-opacity="0" result="BackgroundImageFix"/>
<feColorMatrix in="SourceAlpha" type="matrix" values="0 0 0 0 0 0 0 0 0 0 0 0 0 0 0 0 0 0 127 0" result="hardAlpha"/>
<feOffset dy="1"/>
<feGaussianBlur stdDeviation="2.5"/>
<feComposite in2="hardAlpha" operator="out"/>
<feColorMatrix type="matrix" values="0 0 0 0 0 0 0 0 0 0 0 0 0 0 0 0 0 0 0.25 0"/>
<feBlend mode="normal" in2="BackgroundImageFix" result="effect1_dropShadow_2_653"/>
<feBlend mode="normal" in="SourceGraphic" in2="effect1_dropShadow_2_653" result="shape"/>
</filter>
</defs>
</svg>
