<svg width="44" height="45" viewBox="0 0 44 45" fill="none" xmlns="http://www.w3.org/2000/svg">
<path d="M0.12588 22.7762C0.0796271 21.6327 -0.00663585 20.5663 0.000406072 19.5004C0.00632769 18.572 0.245754 17.6999 1.04917 17.1013C2.6677 15.8955 4.70633 16.7393 4.91743 18.7446C5.0373 19.8828 5.04595 21.0357 5.05187 22.1822C5.07107 25.862 6.04669 29.2354 8.17832 32.2555C10.957 36.1923 14.7702 38.4837 19.4774 39.2613C24.6121 40.1094 29.1212 38.6461 33.0419 35.2921C37.3919 31.5707 39.2167 26.7629 38.8617 21.1211C38.6335 17.4941 37.1849 14.3239 34.8611 11.5355C31.5573 7.57179 27.2954 5.66776 22.1937 5.61485C17.4999 5.56611 12.8052 5.60138 8.11094 5.5815C6.57724 5.57509 5.64611 4.81209 5.43869 3.47112C5.18022 1.80036 6.13296 0.546606 7.88496 0.54356C13.4036 0.53394 18.9366 0.378905 24.437 0.718797C30.0811 1.06767 34.6993 3.82785 38.4948 7.99778C40.5784 10.2869 42.1052 12.8974 42.9641 15.8568C44.4442 20.9568 44.4346 26.0539 42.3064 30.9769C39.9939 36.3262 36.2024 40.3345 30.8197 42.6718C26.8708 44.3866 22.7357 44.9049 18.4666 44.1851C13.9213 43.4187 9.9396 41.4942 6.66063 38.2484C2.39482 34.026 0.086509 28.9297 0.12588 22.7762Z" fill="#907DE0"/>
<path d="M30.0068 27.821C26.4854 31.7675 21.767 32.8171 17.0049 30.6649C13.813 29.2224 10.7077 25.0092 11.1801 20.704C11.2766 19.8254 12.0118 19.0435 12.8734 18.9226C13.9381 18.7733 14.9154 19.2413 15.2502 20.129C15.3971 20.5188 15.4558 20.957 15.4763 21.3769C15.6589 25.1274 19.1501 27.902 22.8374 27.2118C25.8315 26.6514 27.8054 24.357 28.0108 21.1648C28.0722 20.211 28.3797 19.4292 29.3299 19.073C30.2215 18.7387 31.1185 18.7898 31.7472 19.5548C32.0938 19.9766 32.4044 20.6007 32.3862 21.1215C32.3006 23.5682 31.674 25.8599 30.0068 27.821Z" fill="#EFC762"/>
</svg>
