<svg width="38" height="38" viewBox="0 0 38 38" fill="none" xmlns="http://www.w3.org/2000/svg">
<path d="M19 4.74998C16.3766 4.74998 14.25 6.87663 14.25 9.49998V17.4166C14.25 20.04 16.3766 22.1666 19 22.1666C21.6234 22.1666 23.75 20.04 23.75 17.4166V9.49998C23.75 6.87663 21.6234 4.74998 19 4.74998ZM20.5833 31.5797V34.0416C20.5833 34.9161 19.8745 35.625 19 35.625C18.1255 35.625 17.4167 34.9161 17.4167 34.0416V31.5797C10.2917 30.7921 4.75 24.7515 4.75 17.4166C4.75 16.5422 5.45888 15.8333 6.33333 15.8333C7.20778 15.8333 7.91667 16.5422 7.91667 17.4166C7.91667 23.5378 12.8788 28.5 19 28.5C25.1212 28.5 30.0833 23.5378 30.0833 17.4166C30.0833 16.5422 30.7922 15.8333 31.6667 15.8333C32.5411 15.8333 33.25 16.5422 33.25 17.4166C33.25 24.7515 27.7083 30.7921 20.5833 31.5797ZM19 1.58331C23.3723 1.58331 26.9167 5.12773 26.9167 9.49998V17.4166C26.9167 21.7889 23.3723 25.3333 19 25.3333C14.6277 25.3333 11.0833 21.7889 11.0833 17.4166V9.49998C11.0833 5.12773 14.6277 1.58331 19 1.58331Z" fill="#907DE0"/>
</svg>
