<svg width="656" height="410" viewBox="0 0 656 410" fill="none" xmlns="http://www.w3.org/2000/svg">
<path d="M471.738 24.0325C424.579 3.03491 359.029 3.59987 317.002 36.7911C304.261 46.8661 294.807 60.4486 282.809 71.3476C254.873 96.7 216.088 91.8037 181.579 92.9101C141.398 94.2048 109.523 108.658 86.7428 143.474C62.7242 180.196 46.5842 248.344 87.103 279.77C100.384 290.056 117.357 293.376 133.272 298.272C149.187 303.168 165.822 311.03 173.43 326.237C181.467 342.291 177.212 362.135 186.036 377.837C194.433 392.761 212.959 398.128 228.603 399.352C246.139 400.717 263.922 397.681 278.712 387.488C292.533 377.954 302.91 364.16 316.056 353.732C338.094 336.265 367.65 329.509 394.843 335.206C422.441 340.973 446.212 358.063 473.809 364.866C521.824 376.73 586.857 354.697 592.529 296.742C595.276 268.635 581.95 246.202 559.822 231.395C541.746 219.296 518.132 209.903 509.421 187.799C502.42 170.05 508.16 152.984 511.379 135.188C517.615 100.655 520.496 61.3902 491.525 36.3203C485.672 31.3063 478.964 27.2574 471.738 24.0325Z" fill="#E7E5E4"/>
<path d="M177.122 76.7136C193.195 79.1853 209.74 79.609 225.587 75.9368C241.457 72.2646 256.674 64.261 267.614 51.7143C271.666 47.0534 275.11 39.6854 271.193 34.8833C269.64 32.9765 267.299 32.0585 264.958 31.4935C259.42 30.1518 253.635 30.5049 247.985 31.0698C221.108 33.6592 192.88 41.2861 174.736 62.1895C173.521 63.5784 172.463 65.1555 171.99 66.9916C169.806 75.8426 177.122 76.7136 177.122 76.7136Z" fill="#E7E5E4"/>
<path d="M119.339 344.479C121.522 351.258 126.587 357.237 130.706 362.463C133.61 366.135 136.829 369.713 141.466 371.738C145.743 373.597 151.168 373.88 156.751 371.808C158.304 371.22 159.88 370.443 161.051 369.266C162.108 368.183 162.694 366.888 163.031 365.617C163.887 362.51 163.504 359.591 162.919 356.837C160.24 343.961 153.892 327.436 139.711 322.775C134.376 321.033 126.249 322.61 121.815 327.765C117.223 333.085 117.831 339.818 119.339 344.479Z" fill="#E7E5E4"/>
<path d="M273.663 71.6809C251.368 67.9265 229.45 81.6463 224.641 105.424C223.378 111.635 222.137 117.846 220.874 124.057C214.801 122.713 208.707 121.369 202.634 120.024C181.381 115.297 157.159 130.685 153.591 153.744C150 177.059 163.12 199.979 185.858 205.008C204.407 209.11 222.957 213.212 241.506 217.337C242.481 217.592 243.479 217.824 244.498 218.009C265.729 222.714 289.974 207.326 293.52 184.266C297.664 163.826 301.786 143.385 305.93 122.968C310.407 100.719 295.692 75.3889 273.663 71.6809Z" fill="#FB7185"/>
<path d="M498.946 137.181L498.592 136.138C496.287 129.255 488.973 125.547 481.793 127.285C488.419 123.925 491.899 116.207 489.594 109.347L489.239 108.305C486.979 101.561 479.909 97.8757 472.884 99.3589C479.266 95.8827 482.569 88.3507 480.308 81.6299L479.954 80.587C477.471 73.1478 469.116 69.4166 461.426 72.2439L439.132 80.4943L439.065 80.3321L432.394 82.9972L416.815 88.7447C413.402 83.3912 417.635 67.4003 416.239 61.2125C414.2 52.1047 409.789 43.6921 403.518 36.9017C399.484 32.5216 390.487 30.0187 385.323 33.9816C382.486 36.1601 381.533 39.9608 381.976 43.2286C382.42 46.4963 383.993 49.4163 385.345 52.3828C389.179 60.8185 387.384 68.5127 383.971 77.6901C380.979 85.7551 378.918 92.5686 380.514 101.051C381.755 107.656 378.01 114.469 371.538 117.366L364.757 120.425C373.333 144.921 381.511 169.348 390.553 193.381C397.468 190.947 404.316 188.282 411.053 185.339L411.208 185.779L447.354 171.388L489.35 155.86C497.173 153.033 501.45 144.62 498.946 137.181Z" fill="white"/>
<path d="M476.894 96.6018C467.829 100.31 458.743 103.995 449.679 107.703C448.482 108.189 448.992 110.252 450.211 109.742C459.275 106.034 468.361 102.349 477.425 98.6412C478.644 98.1546 478.112 96.1151 476.894 96.6018Z" fill="#533630"/>
<path d="M487.511 124.713C478.691 128.305 469.893 131.898 461.072 135.49C459.876 135.976 460.385 138.039 461.604 137.529C470.425 133.937 479.223 130.345 488.043 126.753C489.24 126.266 488.73 124.203 487.511 124.713Z" fill="#533630"/>
<path d="M402.45 34.5377C396.222 37.0869 390.017 39.613 383.789 42.1623C381.374 43.1357 382.438 47.2377 384.875 46.2411C391.103 43.6919 397.308 41.1658 403.536 38.6165C405.929 37.6431 404.887 33.5411 402.45 34.5377Z" fill="#533630"/>
<path d="M501.857 134.701L501.502 133.704C499.198 127.146 491.773 123.808 484.46 125.732C491.219 122.233 494.787 114.654 492.483 108.096L492.128 107.099C489.867 100.656 482.687 97.3424 475.529 99.0341C482.022 95.442 485.413 88.0491 483.152 81.6296L482.798 80.633C480.294 73.5414 471.828 70.2042 463.983 73.2401L409.243 94.3527C401.398 97.3887 397.01 105.662 399.514 112.754L399.869 113.75C402.129 120.193 409.31 123.507 416.468 121.815C409.974 125.408 406.584 132.8 408.844 139.22L409.199 140.217C411.504 146.775 418.928 150.112 426.241 148.189C419.482 151.688 415.914 159.267 418.219 165.825L418.573 166.822C421.078 173.913 429.543 177.251 437.389 174.215L492.128 153.102C499.973 150.089 504.361 141.792 501.857 134.701Z" fill="white"/>
<path d="M463.424 71.2004C452.321 75.4878 441.196 79.7752 430.093 84.0626C423.91 86.4497 417.727 88.8367 411.543 91.2238C405.515 93.5413 399.931 96.7626 397.626 103.53C395.919 108.559 396.961 114.469 400.219 118.571C404.319 123.762 410.945 125.083 416.995 123.854C416.485 122.557 415.954 121.282 415.444 119.984C408.463 124.109 404.186 132.29 407.155 140.517C410.192 148.976 418.768 152.082 426.791 150.228C426.259 148.93 425.749 147.655 425.217 146.358C416.153 151.387 411.876 163.948 419.588 172.407C424.907 178.247 432.819 178.224 439.578 175.605C452.786 170.506 466.017 165.408 479.225 160.309C483.702 158.571 488.201 156.856 492.678 155.118C495.115 154.191 494.052 150.089 491.592 151.039C482.262 154.631 472.931 158.247 463.579 161.839C457.285 164.272 450.991 166.682 444.697 169.116C441.506 170.344 438.27 171.92 434.946 172.754C429.228 174.191 422.713 171.966 420.43 165.964C417.882 159.336 421.627 153.125 427.256 149.996C429.361 148.837 427.877 145.616 425.683 146.126C419.655 147.516 413.139 145.361 410.879 138.918C408.662 132.615 412.253 126.728 417.483 123.646C419.566 122.418 418.103 119.335 415.909 119.776C410.103 120.958 403.875 118.802 401.615 112.684C399.776 107.725 401.526 102.556 405.294 99.1729C408.308 96.4614 412.585 95.3026 416.286 93.8889C428.763 89.0685 441.24 84.2712 453.717 79.4507C457.307 78.0602 460.898 76.6697 464.488 75.3024C466.926 74.3522 465.884 70.2502 463.424 71.2004Z" fill="#533630"/>
<path d="M478.147 94.0051C457.004 102.163 435.884 110.297 414.742 118.455C412.304 119.382 413.368 123.484 415.828 122.534C436.97 114.376 458.09 106.242 479.232 98.0839C481.67 97.1569 480.606 93.0549 478.147 94.0051Z" fill="#533630"/>
<path d="M488.599 123.646C467.501 131.78 446.403 139.915 425.283 148.049C422.845 148.976 423.909 153.078 426.369 152.128C447.467 143.994 468.565 135.859 489.685 127.725C492.1 126.798 491.059 122.696 488.599 123.646Z" fill="#533630"/>
<path d="M404.787 97.158C413.918 123.022 423.026 148.908 432.157 174.772C433.043 177.321 436.966 176.209 436.057 173.636C426.927 147.773 417.818 121.886 408.687 96.0224C407.801 93.4963 403.878 94.5856 404.787 97.158Z" fill="#533630"/>
<path d="M364.851 120.443L344.152 128.66L370.54 201.351L391.238 193.135L364.851 120.443Z" fill="#9887E3"/>
<path d="M237.847 256.99L361.177 227.65C368.624 225.889 376.159 231.034 377.909 239.099L385.644 274.673L434.4 252.68L390.408 296.573L397.412 328.787C399.162 336.852 394.508 344.917 387.062 346.678L263.732 376.018C256.286 377.779 248.751 372.635 247 364.57L227.498 274.881C225.747 266.816 230.401 258.751 237.847 256.99Z" fill="#FBBF24"/>
<path d="M305.6 277.869C322.176 273.883 338.753 269.92 355.308 265.933C358.278 265.215 357.015 260.441 354.045 261.159C337.468 265.145 320.891 269.108 304.336 273.095C301.389 273.813 302.63 278.587 305.6 277.869Z" fill="white"/>
<path d="M261.718 288.414C268.876 286.699 276.056 284.984 283.214 283.246C286.184 282.528 284.921 277.753 281.951 278.472C274.793 280.187 267.613 281.902 260.454 283.64C257.485 284.358 258.748 289.132 261.718 288.414Z" fill="white"/>
<path d="M341.123 294.416C347.594 292.863 354.065 291.31 360.537 289.758C363.506 289.039 362.243 284.265 359.273 284.984C352.802 286.536 346.331 288.089 339.86 289.642C336.912 290.36 338.153 295.134 341.123 294.416Z" fill="white"/>
<path d="M266.947 312.218C284.676 308 302.339 303.434 320.113 299.448C323.083 298.776 321.819 294.002 318.85 294.674C301.076 298.66 283.413 303.203 265.684 307.444C262.714 308.162 263.977 312.936 266.947 312.218Z" fill="white"/>
<path d="M272.551 337.823C290.923 333.419 309.272 329.016 327.645 324.59C330.614 323.871 329.351 319.097 326.381 319.816C308.009 324.219 289.659 328.622 271.287 333.049C268.318 333.744 269.581 338.518 272.551 337.823Z" fill="white"/>
</svg>
