<svg width="20" height="22" viewBox="0 0 20 22" fill="none" xmlns="http://www.w3.org/2000/svg">
<path d="M12.5 3.5H11.75H12.5ZM10 6V6.75V6ZM10 1V0.25V1ZM18.7606 16.7108C19.1532 16.843 19.5786 16.6319 19.7108 16.2394C19.843 15.8468 19.6319 15.4214 19.2394 15.2892L18.7606 16.7108ZM17.842 15.61L18.0814 14.8992L18.0813 14.8992L17.842 15.61ZM17.2 15.293L16.7769 15.9123L16.7812 15.9151L17.2 15.293ZM17.099 15.224L17.5221 14.6047L17.5193 14.6028L17.099 15.224ZM16 13.15L16.75 13.151V13.15H16ZM11.877 8.232L12.0017 7.49243L12.0016 7.49243L11.877 8.232ZM10.987 8.082L11.1116 7.34243L11.1115 7.34241L10.987 8.082ZM9.013 8.082L9.13751 8.82159L9.13753 8.82159L9.013 8.082ZM8.122 8.232L7.99749 7.49241L7.99734 7.49243L8.122 8.232ZM4 13.15H3.25L3.25 13.151L4 13.15ZM2.901 15.224L2.48068 14.6028L2.47506 14.6067L2.901 15.224ZM2.801 15.293L3.2185 15.9161L3.22694 15.9103L2.801 15.293ZM2.158 15.61L2.39738 16.3208L2.39892 16.3203L2.158 15.61ZM0.760621 15.2892C0.368072 15.4214 0.157022 15.8468 0.289227 16.2394C0.421433 16.6319 0.84683 16.843 1.23938 16.7108L0.760621 15.2892ZM8.09994 15.4501C8.34851 15.1187 8.28142 14.6486 7.95008 14.4001C7.61874 14.1515 7.14863 14.2186 6.90006 14.5499L8.09994 15.4501ZM6.575 16.233L5.97506 15.7829L5.975 15.783L6.575 16.233ZM6.271 16.614L5.73444 16.0899L5.72904 16.0956L6.271 16.614ZM5.539 17.1L5.27154 16.3993L5.27018 16.3998L5.539 17.1ZM5.069 17.233L5.25081 17.9606L5.2509 17.9606L5.069 17.233ZM3.276 17.681L3.09419 16.9534L3.09288 16.9537L3.276 17.681ZM3.685 21L3.68392 21.75H3.685V21ZM9.105 19.421L9.55493 20.0211L9.55495 20.021L9.105 19.421ZM11.4499 18.6C11.7813 18.3515 11.8485 17.8814 11.6 17.5501C11.3515 17.2187 10.8814 17.1515 10.5501 17.4L11.4499 18.6ZM13.0999 14.5499C12.8513 14.2186 12.3812 14.1515 12.0499 14.4001C11.7186 14.6487 11.6515 15.1188 11.9001 15.4501L13.0999 14.5499ZM13.227 15.969L13.8273 15.5194L13.8269 15.5189L13.227 15.969ZM13.965 16.825L13.512 17.4228L13.5164 17.4261L13.965 16.825ZM14.175 16.965L14.5506 16.3158L14.549 16.3149L14.175 16.965ZM15.25 17.313L15.0678 18.0405L15.0683 18.0407L15.25 17.313ZM16.724 17.681L16.9071 16.9537L16.9057 16.9533L16.724 17.681ZM16.315 21V21.75H16.3161L16.315 21ZM14.255 20.984L14.2979 20.2352L14.2969 20.2352L14.255 20.984ZM11.83 20.544L12.0538 19.8282L12.0526 19.8278L11.83 20.544ZM10.774 20.165L11.0382 19.4631L11.0373 19.4627L10.774 20.165ZM9.26326 18.7977C8.8754 18.6523 8.44311 18.8489 8.29772 19.2367C8.15233 19.6246 8.34889 20.0569 8.73674 20.2023L9.26326 18.7977ZM12.5 3.5H11.75C11.75 3.96413 11.5656 4.40925 11.2374 4.73744L11.7678 5.26777L12.2981 5.7981C12.9076 5.1886 13.25 4.36195 13.25 3.5H12.5ZM11.7678 5.26777L11.2374 4.73744C10.9092 5.06563 10.4641 5.25 10 5.25V6V6.75C10.862 6.75 11.6886 6.40759 12.2981 5.7981L11.7678 5.26777ZM10 6V5.25C9.53587 5.25 9.09075 5.06563 8.76256 4.73744L8.23223 5.26777L7.7019 5.7981C8.3114 6.40759 9.13805 6.75 10 6.75V6ZM8.23223 5.26777L8.76256 4.73744C8.43437 4.40925 8.25 3.96413 8.25 3.5H7.5H6.75C6.75 4.36195 7.09241 5.1886 7.7019 5.7981L8.23223 5.26777ZM7.5 3.5H8.25C8.25 3.03587 8.43437 2.59075 8.76256 2.26256L8.23223 1.73223L7.7019 1.2019C7.09241 1.8114 6.75 2.63805 6.75 3.5H7.5ZM8.23223 1.73223L8.76256 2.26256C9.09075 1.93437 9.53587 1.75 10 1.75V1V0.25C9.13805 0.25 8.3114 0.59241 7.7019 1.2019L8.23223 1.73223ZM10 1V1.75C10.4641 1.75 10.9092 1.93437 11.2374 2.26256L11.7678 1.73223L12.2981 1.2019C11.6886 0.59241 10.862 0.25 10 0.25V1ZM11.7678 1.73223L11.2374 2.26256C11.5656 2.59075 11.75 3.03587 11.75 3.5H12.5H13.25C13.25 2.63805 12.9076 1.8114 12.2981 1.2019L11.7678 1.73223ZM19 16L19.2394 15.2892L18.0814 14.8992L17.842 15.61L17.6026 16.3208L18.7606 16.7108L19 16ZM17.842 15.61L18.0813 14.8992C17.9177 14.8441 17.7621 14.7673 17.6188 14.6709L17.2 15.293L16.7812 15.9151C17.0356 16.0865 17.3119 16.2229 17.6027 16.3208L17.842 15.61ZM17.2 15.293L17.6231 14.6737L17.5221 14.6047L17.099 15.224L16.6759 15.8433L16.7769 15.9123L17.2 15.293ZM17.099 15.224L17.5193 14.6028C17.282 14.4423 17.0878 14.226 16.9537 13.9728L16.291 14.324L15.6283 14.6752C15.8774 15.1453 16.2381 15.547 16.6787 15.8452L17.099 15.224ZM16.291 14.324L16.9537 13.9728C16.8195 13.7197 16.7496 13.4375 16.75 13.151L16 13.15L15.25 13.149C15.2493 13.681 15.3792 14.2051 15.6283 14.6752L16.291 14.324ZM16 13.15H16.75C16.75 10.3524 14.7471 7.9552 12.0017 7.49243L11.877 8.232L11.7523 8.97157C13.7649 9.31081 15.25 11.0736 15.25 13.15H16ZM11.877 8.232L12.0016 7.49243L11.1116 7.34243L10.987 8.082L10.8624 8.82157L11.7524 8.97157L11.877 8.232ZM10.987 8.082L11.1115 7.34241C10.8072 7.29116 10.3871 7.2705 10 7.2705C9.61294 7.2705 9.19284 7.29116 8.88847 7.34241L9.013 8.082L9.13753 8.82159C9.32016 8.79084 9.64356 8.7705 10 8.7705C10.3564 8.7705 10.6798 8.79084 10.8625 8.82159L10.987 8.082ZM9.013 8.082L8.88849 7.34241L7.99749 7.49241L8.122 8.232L8.24651 8.97159L9.13751 8.82159L9.013 8.082ZM8.122 8.232L7.99734 7.49243C5.25171 7.95523 3.25 10.3526 3.25 13.15H4H4.75C4.75 11.0734 6.23429 9.31077 8.24666 8.97157L8.122 8.232ZM4 13.15L3.25 13.151C3.2504 13.4375 3.18046 13.7197 3.04632 13.9728L3.70903 14.324L4.37174 14.6752C4.62084 14.2051 4.75073 13.681 4.75 13.149L4 13.15ZM3.70903 14.324L3.04632 13.9728C2.91219 14.226 2.71797 14.4423 2.4807 14.6028L2.901 15.224L3.3213 15.8452C3.76193 15.547 4.12264 15.1453 4.37174 14.6752L3.70903 14.324ZM2.901 15.224L2.47506 14.6067L2.37506 14.6757L2.801 15.293L3.22694 15.9103L3.32694 15.8413L2.901 15.224ZM2.801 15.293L2.38354 14.6699C2.23921 14.7666 2.0827 14.8436 1.91708 14.8997L2.158 15.61L2.39892 16.3203C2.6873 16.2224 2.96279 16.0874 3.21846 15.9161L2.801 15.293ZM2.158 15.61L1.91862 14.8992L0.760621 15.2892L1 16L1.23938 16.7108L2.39738 16.3208L2.158 15.61ZM7.5 15L6.90006 14.5499L5.97506 15.7829L6.575 16.233L7.17494 16.6831L8.09994 15.4501L7.5 15ZM6.575 16.233L5.975 15.783C5.81337 15.9985 5.77561 16.0478 5.73447 16.0899L6.271 16.614L6.80753 17.1381C6.93439 17.0082 7.04263 16.8595 7.175 16.683L6.575 16.233ZM6.271 16.614L5.72904 16.0956C5.60094 16.2295 5.44467 16.3332 5.27154 16.3993L5.539 17.1L5.80646 17.8007C6.18735 17.6553 6.53114 17.427 6.81296 17.1324L6.271 16.614ZM5.539 17.1L5.27018 16.3998C5.21003 16.4229 5.14194 16.4417 4.8871 16.5054L5.069 17.233L5.2509 17.9606C5.47606 17.9043 5.64397 17.8631 5.80782 17.8002L5.539 17.1ZM5.069 17.233L4.88719 16.5054L3.09419 16.9534L3.276 17.681L3.45781 18.4086L5.25081 17.9606L5.069 17.233ZM3.276 17.681L3.09288 16.9537C2.51722 17.0986 2.01433 17.4489 1.67877 17.9386L2.29745 18.3625L2.91613 18.7865C3.04498 18.5984 3.23808 18.464 3.45912 18.4083L3.276 17.681ZM2.29745 18.3625L1.67877 17.9386C1.34321 18.4282 1.19809 19.0236 1.2707 19.6128L2.01507 19.5211L2.75944 19.4294C2.73156 19.2031 2.78728 18.9745 2.91613 18.7865L2.29745 18.3625ZM2.01507 19.5211L1.2707 19.6128C1.3433 20.202 1.62863 20.7443 2.07303 21.1379L2.57027 20.5764L3.06752 20.015C2.89687 19.8638 2.78731 19.6556 2.75944 19.4294L2.01507 19.5211ZM2.57027 20.5764L2.07303 21.1379C2.51743 21.5315 3.0903 21.7491 3.68392 21.75L3.685 21L3.68608 20.25C3.45813 20.2497 3.23816 20.1661 3.06752 20.015L2.57027 20.5764ZM3.685 21V21.75H4.368V21V20.25H3.685V21ZM4.368 21V21.75C6.23936 21.75 8.05821 21.1433 9.55493 20.0211L9.105 19.421L8.65507 18.8209C7.41779 19.7487 5.91464 20.25 4.368 20.25V21ZM9.105 19.421L9.55495 20.021L11.4499 18.6L11 18L10.5501 17.4L8.65505 18.821L9.105 19.421ZM12.5 15L11.9001 15.4501L12.6271 16.4191L13.227 15.969L13.8269 15.5189L13.0999 14.5499L12.5 15ZM13.227 15.969L12.6267 16.4186C12.9451 16.8437 13.1857 17.1754 13.512 17.4227L13.965 16.825L14.418 16.2273C14.2983 16.1366 14.1949 16.0103 13.8273 15.5194L13.227 15.969ZM13.965 16.825L13.5164 17.4261C13.5989 17.4876 13.6944 17.5538 13.801 17.6151L14.175 16.965L14.549 16.3149C14.5095 16.2922 14.4651 16.2624 14.4136 16.2239L13.965 16.825ZM14.175 16.965L13.7994 17.6142C14.154 17.8193 14.5549 17.9121 15.0678 18.0405L15.25 17.313L15.4322 16.5855C14.8351 16.4359 14.68 16.3907 14.5506 16.3158L14.175 16.965ZM15.25 17.313L15.0683 18.0407L16.5423 18.4087L16.724 17.681L16.9057 16.9533L15.4317 16.5853L15.25 17.313ZM16.724 17.681L16.5409 18.4083C16.7619 18.464 16.955 18.5984 17.0839 18.7865L17.7025 18.3625L18.3212 17.9386C17.9857 17.4489 17.4828 17.0986 16.9071 16.9537L16.724 17.681ZM17.7025 18.3625L17.0839 18.7865C17.2127 18.9745 17.2684 19.2031 17.2406 19.4294L17.9849 19.5211L18.7293 19.6128C18.8019 19.0236 18.6568 18.4282 18.3212 17.9386L17.7025 18.3625ZM17.9849 19.5211L17.2406 19.4294C17.2127 19.6556 17.1031 19.8638 16.9325 20.015L17.4297 20.5764L17.927 21.1379C18.3714 20.7443 18.6567 20.202 18.7293 19.6128L17.9849 19.5211ZM17.4297 20.5764L16.9325 20.015C16.7618 20.1661 16.5419 20.2497 16.3139 20.25L16.315 21L16.3161 21.75C16.9097 21.7491 17.4826 21.5315 17.927 21.1379L17.4297 20.5764ZM16.315 21V20.25H15.378V21V21.75H16.315V21ZM15.378 21V20.25C14.8069 20.25 14.5506 20.2497 14.2979 20.2352L14.255 20.984L14.2121 21.7328C14.5174 21.7503 14.8231 21.75 15.378 21.75V21ZM14.255 20.984L14.2969 20.2352C13.5353 20.1925 12.7819 20.0558 12.0538 19.8282L11.83 20.544L11.6062 21.2598C12.4523 21.5244 13.3279 21.6833 14.2131 21.7328L14.255 20.984ZM11.83 20.544L12.0526 19.8278C11.8109 19.7527 11.57 19.6633 11.0382 19.4631L10.774 20.165L10.5098 20.8669C11.03 21.0627 11.3151 21.1693 11.6074 21.2602L11.83 20.544ZM10.774 20.165L11.0373 19.4627L9.26326 18.7977L9 19.5L8.73674 20.2023L10.5107 20.8673L10.774 20.165Z" fill="#5E4CAB"/>
</svg>
