<svg width="21" height="21" viewBox="0 0 21 21" fill="none" xmlns="http://www.w3.org/2000/svg">
<path d="M13.0112 0.953125C12.746 0.953125 12.4733 1.09163 12.2818 1.27493C10.7332 2.75773 10.259 3.99773 10.8252 5.69633C9.5041 6.70893 8.6697 6.95743 7.0205 6.95743C4.766 6.95743 3.294 7.22923 2.2924 8.23013V8.26133C1.3552 9.19813 1.3552 10.6981 2.2924 11.6341L5.0926 14.4561L0.321503 19.2251C-0.0689972 19.6151 -0.0980967 20.2701 0.292403 20.6601C0.683003 21.0511 1.3394 21.0511 1.73 20.6601L6.5188 15.8701L9.3237 18.6611C10.261 19.5981 11.7614 19.5981 12.6987 18.6611H12.73C13.732 17.6601 14.0112 16.3771 14.0112 13.9451C14.0112 12.3991 14.3285 11.3081 15.2892 10.1601C17.1381 10.7021 18.2138 10.1831 19.73 8.66743C19.9175 8.47993 20.0112 8.21413 20.0112 7.94903C20.0112 7.59733 19.9224 7.05823 19.6987 6.38743C19.3384 5.30733 18.7181 4.22063 17.73 3.23303C16.7418 2.24553 15.6544 1.62553 14.5737 1.26543C13.9025 1.04183 13.3631 0.953125 13.0112 0.953125ZM13.3985 3.00773C14.4609 3.20493 15.5306 3.90822 16.2924 4.66973C17.0543 5.43113 17.7032 6.36372 17.9717 7.58602C17.0172 8.50163 16.4334 8.57403 15.4788 8.07153C15.098 7.87103 14.6155 7.94193 14.3112 8.24613C12.4902 10.0661 12.0112 11.7171 12.0112 13.9451C12.0112 15.8851 11.8971 16.6061 11.2924 17.2561C11.1217 17.4401 10.8862 17.4121 10.73 17.2561L3.6987 10.2291C3.5425 10.0731 3.5473 9.87313 3.6732 9.72013C4.0304 9.28513 4.8254 8.94723 7.0112 8.94843C9.6242 8.94993 11.0133 8.27703 12.73 6.66853C13.0343 6.36433 13.1099 5.89773 12.9174 5.51293C12.4032 4.48503 12.4834 3.94323 13.3985 3.00773Z" fill="#888888"/>
</svg>
