<svg width="20" height="21" viewBox="0 0 20 21" fill="none" xmlns="http://www.w3.org/2000/svg">
<path d="M0 3.88636C0 2.92194 0.383116 1.99702 1.06507 1.31507C1.74702 0.633116 2.67194 0.25 3.63636 0.25H16.3636C17.3281 0.25 18.253 0.633116 18.9349 1.31507C19.6169 1.99702 20 2.92194 20 3.88636V11.1591C20 12.1235 19.6169 13.0484 18.9349 13.7304C18.253 14.4123 17.3281 14.7955 16.3636 14.7955H12.7273L7.27273 20.25V14.7955H3.63636C2.67194 14.7955 1.74702 14.4123 1.06507 13.7304C0.383116 13.0484 0 12.1235 0 11.1591V3.88636Z" fill="#919191"/>
</svg>
