<svg width="58" height="58" viewBox="0 0 58 58" fill="none" xmlns="http://www.w3.org/2000/svg">
<g filter="url(#filter0_d_2_664)">
<path d="M53 28C53 41.2548 42.2548 52 29 52C15.7452 52 5 41.2548 5 28C5 14.7452 15.7452 4 29 4C42.2548 4 53 14.7452 53 28Z" fill="#FB7185"/>
<path d="M35 22C34.8125 21.8125 34.5582 21.7072 34.293 21.7072C34.0278 21.7072 33.7735 21.8125 33.586 22L29 26.586L24.414 22C24.2265 21.8125 23.9722 21.7072 23.707 21.7072C23.4418 21.7072 23.1875 21.8125 23 22C22.8125 22.1875 22.7072 22.4418 22.7072 22.707C22.7072 22.9722 22.8125 23.2265 23 23.414L27.586 28L23 32.586C22.8125 32.7735 22.7072 33.0278 22.7072 33.293C22.7072 33.5582 22.8125 33.8125 23 34C23.1875 34.1875 23.4418 34.2928 23.707 34.2928C23.9722 34.2928 24.2265 34.1875 24.414 34L29 29.414L33.586 34C33.7735 34.1875 34.0278 34.2928 34.293 34.2928C34.5582 34.2928 34.8125 34.1875 35 34C35.1875 33.8125 35.2928 33.5582 35.2928 33.293C35.2928 33.0278 35.1875 32.7735 35 32.586L30.414 28L35 23.414C35.1875 23.2265 35.2928 22.9722 35.2928 22.707C35.2928 22.4418 35.1875 22.1875 35 22Z" fill="white"/>
</g>
<defs>
<filter id="filter0_d_2_664" x="0" y="0" width="58" height="58" filterUnits="userSpaceOnUse" color-interpolation-filters="sRGB">
<feFlood flood-opacity="0" result="BackgroundImageFix"/>
<feColorMatrix in="SourceAlpha" type="matrix" values="0 0 0 0 0 0 0 0 0 0 0 0 0 0 0 0 0 0 127 0" result="hardAlpha"/>
<feOffset dy="1"/>
<feGaussianBlur stdDeviation="2.5"/>
<feComposite in2="hardAlpha" operator="out"/>
<feColorMatrix type="matrix" values="0 0 0 0 0 0 0 0 0 0 0 0 0 0 0 0 0 0 0.25 0"/>
<feBlend mode="normal" in2="BackgroundImageFix" result="effect1_dropShadow_2_664"/>
<feBlend mode="normal" in="SourceGraphic" in2="effect1_dropShadow_2_664" result="shape"/>
</filter>
</defs>
</svg>
