<svg width="20" height="21" viewBox="0 0 20 21" fill="none" xmlns="http://www.w3.org/2000/svg">
<path d="M17.4368 8.38589C17.9788 8.61339 18.3152 9.01838 18.3203 9.59172C18.3238 9.99255 18.0533 10.5309 17.5113 10.7509C17.288 10.8417 14.1534 11.2634 14.1534 11.2634C14.1534 11.2634 13.3238 13.8859 13.0248 14.8076C12.9382 15.0742 12.8889 15.2051 12.6989 15.3792C12.3765 15.6742 11.8316 15.5817 11.5959 15.3451C10.9724 14.7201 9.98695 13.7559 9.98695 13.7559L9.5722 14.0934C9.5722 14.0934 7.73044 15.5626 6.72369 16.2542C6.13094 16.6617 5.71953 17.0867 5.05236 17.0892C4.71253 17.0909 4.16744 16.9217 3.80711 16.5092C3.56903 16.2367 3.41628 15.8009 3.35719 15.4101C3.22286 14.5225 1.64694 4.92589 1.65361 4.59006C1.66428 4.05423 2.11503 3.75255 2.4897 3.75589C2.72503 3.75839 2.91895 3.82673 3.35045 3.9584C6.68828 4.97756 17.2157 8.29339 17.4368 8.38589ZM4.98695 6.25589C4.98695 6.25589 9.38528 10.0842 11.1429 11.8459C11.7059 12.4101 11.7457 13.3784 11.7457 13.3784L12.6542 10.4717L4.98695 6.25589Z" fill="black"/>
</svg>
